<?xml version="1.0" standalone="no"?>
<!DOCTYPE svg PUBLIC "-//W3C//DTD SVG 20010904//EN"
 "http://www.w3.org/TR/2001/REC-SVG-20010904/DTD/svg10.dtd">
<svg version="1.0" xmlns="http://www.w3.org/2000/svg"
 width="512.000000pt" height="512.000000pt" viewBox="0 0 512.000000 512.000000"
 preserveAspectRatio="xMidYMid meet">
<metadata>
Created by potrace 1.15, written by Peter Selinger 2001-2017
</metadata>
<g transform="translate(0.000000,512.000000) scale(0.100000,-0.100000)"
fill="#000000" stroke="none">
<path d="M2310 4849 c-945 -106 -1729 -780 -1974 -1698 -99 -371 -103 -768
-10 -1143 137 -552 481 -1044 950 -1356 376 -250 764 -375 1209 -389 457 -14
860 88 1244 316 530 314 909 818 1059 1406 54 212 72 358 72 575 0 423 -110
823 -324 1178 -378 628 -1011 1033 -1738 1112 -112 12 -378 11 -488 -1z m-411
-965 c74 -37 190 -141 227 -203 l18 -30 32 20 c17 10 67 29 110 41 70 19 105
21 304 21 246 1 333 -11 422 -57 l47 -25 21 33 c57 94 231 224 306 229 27 2
31 -2 48 -53 28 -77 29 -263 3 -338 l-19 -52 40 -48 c80 -96 114 -203 133
-415 26 -301 -24 -491 -168 -647 -36 -38 -97 -90 -138 -115 -85 -53 -227 -107
-332 -125 -40 -7 -73 -14 -73 -15 0 -2 11 -22 24 -46 51 -92 56 -139 56 -513
l0 -346 -360 0 -360 0 0 181 0 180 -47 -8 c-27 -4 -88 -7 -138 -6 -201 3 -360
103 -450 284 -63 125 -124 211 -198 282 -84 79 -81 90 23 84 108 -7 198 -67
265 -177 96 -158 261 -238 436 -211 39 7 79 16 88 20 9 6 20 36 27 79 9 56 40
138 71 192 2 3 -37 13 -87 23 -314 59 -539 253 -607 522 -13 53 -17 109 -16
235 1 267 34 407 124 527 l50 65 -18 52 c-32 91 -21 298 19 379 13 25 37 21
117 -19z"/>
</g>
</svg>
